<?xml version="1.0" encoding="utf-8"?>
<!-- Generator: Adobe Illustrator 22.1.0, SVG Export Plug-In . SVG Version: 6.00 Build 0)  -->
<svg version="1.1" id="Layer_1" xmlns="http://www.w3.org/2000/svg" xmlns:xlink="http://www.w3.org/1999/xlink" x="0px" y="0px"
	 viewBox="0 0 288 288" style="enable-background:new 0 0 288 288;" xml:space="preserve">
<style type="text/css">
	.st0{fill:#113046;}
	.st1{fill:#FFFFFF;}
</style>
<g>
	<path class="st0" d="M409.6,358.3c0,18-14.6,32.6-32.7,32.6c-18,0-32.6-14.6-32.6-32.6c0-18,14.6-32.6,32.6-32.6
		C394.9,325.6,409.6,340.3,409.6,358.3"/>
	<path class="st1" d="M370.8,347.1H383c0,0,1.8,0.8,0,1.8h-12.2C370.8,348.9,368.9,347.9,370.8,347.1"/>
	<path class="st1" d="M380.7,340.6c0,2.1-1.7,3.9-3.8,3.9c-2.1,0-3.9-1.7-3.9-3.9c0-2.1,1.7-3.8,3.9-3.8
		C379,336.7,380.7,338.5,380.7,340.6"/>
	<path class="st1" d="M370.8,375.5H383c0,0,1.8,0.8,0,1.8h-12.2C370.8,377.3,368.9,376.3,370.8,375.5"/>
	<polygon class="st1" points="372.3,354.4 372.3,358 382,354.4 382,350.9 	"/>
	<polygon class="st1" points="372.3,360.4 372.3,364 382,360.4 382,356.9 	"/>
	<polygon class="st1" points="372.3,366.7 372.3,370.3 382,366.7 382,363.2 	"/>
	<path class="st1" d="M381.8,348.7c-1,0-2-0.1-3,0.1c-0.3,0.1-0.6,0-0.9-0.2c-1.3,0-2.6-0.2-3.6-0.1c-0.3,0-0.6-0.1-0.7-0.3
		l-1.2,0.5v3.6l9.7-3.6v0C381.9,348.6,381.9,348.7,381.8,348.7"/>
	<polygon class="st1" points="372.3,373 372.3,376.6 382,373 382,369.5 	"/>
	<path class="st1" d="M378.3,376.7c-1.7,0-3.4,0-5.1-0.2c-0.3,0.2-0.6,0.4-1,0.4c0.4,1.6,2.3,2.8,4.7,2.8c2.3,0,4.2-1.2,4.7-2.8
		C380.5,377,379.3,376.8,378.3,376.7"/>
	<rect x="380.1" y="349.5" class="st0" width="1" height="24.8"/>
	<rect x="364.8" y="377.3" class="st0" width="24.8" height="1"/>
	<path class="st0" d="M377.6,337.9c0,0,3.4,1,1.5,4C379.1,342,379.6,339.3,377.6,337.9"/>
</g>
<g>
	<path class="st0" d="M286,144.1c0,78.5-63.7,142.1-142.2,142.1c-78.5,0-142.1-63.6-142.1-142.1C1.7,65.6,65.4,2,143.8,2
		C222.3,2,286,65.6,286,144.1"/>
	<path class="st1" d="M117.2,95.4h53.2c0,0,8.1,3.6,0,8h-53.2C117.2,103.4,109.1,99,117.2,95.4"/>
	<path class="st1" d="M160.5,67.1c0,9.3-7.5,16.8-16.7,16.8c-9.3,0-16.8-7.5-16.8-16.8c0-9.2,7.5-16.8,16.8-16.8
		C153,50.4,160.5,57.9,160.5,67.1"/>
	<path class="st1" d="M117.2,219.1h53.2c0,0,8.1,3.6,0,8h-53.2C117.2,227.1,109.1,222.7,117.2,219.1"/>
	<polygon class="st1" points="123.6,127.4 123.6,142.9 166,127.4 166,111.9 	"/>
	<polygon class="st1" points="123.6,153.4 123.6,169 166,153.5 166,138 	"/>
	<polygon class="st1" points="123.6,180.8 123.6,196.3 166,180.8 166,165.3 	"/>
	<path class="st1" d="M165,102.2c-4.3,0-8.8-0.5-13.1,0.3c-1.4,0.2-2.7,0-3.8-0.7c-5.5,0-11.2-0.7-15.9-0.5
		c-1.4,0.1-2.4-0.4-3.2-1.2l-5.4,2v15.5l42.3-15.5v0C165.7,102.2,165.4,102.2,165,102.2"/>
	<polygon class="st1" points="123.6,208.3 123.6,223.8 166,208.3 166,192.8 	"/>
	<path class="st1" d="M150.1,224.1c-7.3,0.2-14.7-0.2-22-0.7c-1.2,1-2.7,1.6-4.3,1.9c1.8,7,10.2,12.3,20.3,12.3
		c10.1,0,18.5-5.3,20.3-12.3C159.6,225.6,154.4,224.7,150.1,224.1"/>
	<rect x="157.7" y="105.8" class="st0" width="4.1" height="107.9"/>
	<rect x="91.3" y="226.9" class="st0" width="107.9" height="4.2"/>
	<path class="st0" d="M146.9,55.5c0,0,14.9,4.1,6.4,17.5C153.3,73,155.7,61.5,146.9,55.5"/>
</g>
</svg>
