<?xml version="1.0" encoding="utf-8"?>
<!-- Generator: Adobe Illustrator 22.1.0, SVG Export Plug-In . SVG Version: 6.00 Build 0)  -->
<svg version="1.1" id="Layer_1" xmlns="http://www.w3.org/2000/svg" xmlns:xlink="http://www.w3.org/1999/xlink" x="0px" y="0px"
	 viewBox="0 0 279.5 274.2" style="enable-background:new 0 0 279.5 274.2;" xml:space="preserve">
<style type="text/css">
	.st0{fill:#D6638C;}
	.st1{fill:#FFFFFF;}
	.st2{fill:#113046;stroke:#D6638C;stroke-width:3;stroke-miterlimit:10;}
</style>
<g>
	<path class="st0" d="M279.5,137.1c0,75.7-62.6,137.1-139.7,137.1C62.6,274.2,0,212.8,0,137.1C0,61.4,62.6,0,139.8,0
		C216.9,0,279.5,61.4,279.5,137.1"/>
	<path class="st1" d="M209.2,72.3h-16.1h-35.3c-1.4,0-2.4,1.1-2.4,2.4c0,1.1,0.8,2,1.8,2.3h34.1c0.7,0,1.4,0.4,1.8,0.9
		c0.4,0.4,0.6,1,0.6,1.5c0,0.6-0.3,1.1-0.6,1.5c-0.3,0.4-0.7,0.6-1.2,0.7h-1.2h-32.9c-0.2,0-0.4,0.1-0.6,0.1c-1,0.3-1.8,1.2-1.8,2.3
		c0,1.1,0.8,2,1.8,2.3c0.2,0.1,0.4,0.1,0.6,0.1h32.9h1.2c0.5,0.1,0.9,0.4,1.2,0.7c0.4,0.4,0.6,0.9,0.6,1.5c0,0.6-0.3,1.1-0.6,1.5
		c-0.3,0.4-0.7,0.6-1.2,0.7h-1.2h-32.9c-0.2,0-0.4,0.1-0.6,0.1c-1,0.3-1.8,1.2-1.8,2.3c0,1.1,0.8,2,1.8,2.3c0.2,0.1,0.4,0.1,0.6,0.1
		h32.9h1.2c0.5,0.1,0.9,0.4,1.2,0.7c0.4,0.4,0.6,0.9,0.6,1.5c0,0.6-0.3,1.1-0.6,1.5c-0.3,0.4-0.7,0.6-1.2,0.7h-1.2h-32.9
		c-0.2,0-0.4,0.1-0.6,0.1c-1,0.3-1.8,1.2-1.8,2.3c0,1.1,0.8,2,1.8,2.3c0.2,0.1,0.4,0.1,0.6,0.1h32.9h1.2c0.5,0.1,0.9,0.4,1.2,0.7
		c0.4,0.4,0.6,1,0.6,1.5c0,0.6-0.3,1.1-0.6,1.5c-0.3,0.4-0.7,0.6-1.2,0.7h-1.2h-32.9c-0.2,0-0.4,0.1-0.6,0.1c-1,0.3-1.8,1.2-1.8,2.3
		c0,1.1,0.8,2,1.8,2.3c0.2,0,0.4,0.1,0.6,0.1h32.9h1.2c0.5,0.1,0.9,0.4,1.2,0.7c0.4,0.4,0.6,0.9,0.6,1.5c0,0.6-0.3,1.1-0.6,1.5
		c-0.3,0.4-0.7,0.6-1.2,0.7h-1.2h-32.9c-0.2,0-0.4,0.1-0.6,0.1c-1,0.3-1.8,1.2-1.8,2.3c0,1.1,0.8,2,1.8,2.3c0.2,0.1,0.4,0.1,0.6,0.1
		h32.9h1.2c0.5,0.1,0.9,0.4,1.2,0.7c0.4,0.4,0.6,0.9,0.6,1.5c0,0.6-0.3,1.1-0.6,1.5c-0.3,0.4-0.7,0.6-1.2,0.7h-1.2h-32.9
		c-0.2,0-0.4,0.1-0.6,0.1c-1,0.3-1.8,1.2-1.8,2.3c0,1.1,0.8,2,1.8,2.3c0.2,0.1,0.4,0.1,0.6,0.1h32.9h1.2c0.5,0.1,0.9,0.4,1.2,0.7
		c0.4,0.4,0.6,0.9,0.6,1.5c0,0.6-0.3,1.1-0.6,1.5c-0.3,0.4-0.7,0.6-1.2,0.7h-1.2h-32.9c-0.2,0-0.4,0.1-0.6,0.1
		c-1,0.3-1.8,1.2-1.8,2.3c0,1.1,0.8,2,1.8,2.3c0.2,0.1,0.4,0.1,0.6,0.1h32.9h1.2c0.5,0.1,0.9,0.4,1.2,0.7c0.4,0.4,0.6,0.9,0.6,1.5
		c0,0.6-0.3,1.1-0.6,1.5c-0.3,0.4-0.7,0.6-1.2,0.7h-1.2h-32.9c-0.2,0-0.4,0.1-0.6,0.1c-1,0.3-1.8,1.2-1.8,2.3c0,1.1,0.8,2,1.8,2.3
		c0.2,0,0.4,0.1,0.6,0.1h32.9h1.2c0.5,0.1,0.9,0.4,1.2,0.7c0.4,0.4,0.6,0.9,0.6,1.5c0,0.6-0.3,1.1-0.6,1.5c-0.3,0.4-0.7,0.6-1.2,0.7
		h-1.2h-32.9c-0.2,0-0.4,0.1-0.6,0.1c-1,0.3-1.8,1.2-1.8,2.3c0,1.1,0.8,2,1.8,2.3c0.2,0.1,0.4,0.1,0.6,0.1h32.9h1.2
		c0.5,0.1,0.9,0.4,1.2,0.7c0.4,0.4,0.6,0.9,0.6,1.5c0,0.6-0.3,1.1-0.6,1.5c-0.3,0.4-0.8,0.6-1.2,0.7h-1.2h-32.9
		c-0.2,0-0.4,0.1-0.6,0.1c-1.1,0.3-1.8,1.2-1.8,2.3c0,1.1,0.8,2,1.8,2.3c0.2,0.1,0.4,0.1,0.6,0.1h32.9h1.2c0.5,0.1,0.9,0.4,1.2,0.7
		c0.4,0.4,0.6,0.9,0.6,1.5c0,0.6-0.3,1.1-0.6,1.6c-0.3,0.4-0.7,0.6-1.2,0.7h-1.2h-32.9c-0.2,0-0.4,0.1-0.6,0.1
		c-1,0.3-1.8,1.2-1.8,2.3s0.8,2,1.8,2.3c0.2,0,0.4,0.1,0.6,0.1h32.9h1.2c0.5,0.1,0.9,0.4,1.2,0.7c0.4,0.4,0.6,0.9,0.6,1.5
		c0,0.6-0.3,1.1-0.6,1.5c-0.3,0.4-0.7,0.6-1.2,0.7h-1.2h-32.9c-0.2,0-0.4,0.1-0.6,0.1c-1,0.3-1.8,1.2-1.8,2.3c0,1.1,0.8,2,1.8,2.3
		c0.2,0,0.4,0.1,0.6,0.1h32.9h1.2c0.5,0.1,0.9,0.4,1.2,0.7c0.4,0.4,0.6,0.9,0.6,1.5c0,0.6-0.3,1.1-0.6,1.5c-0.3,0.4-0.7,0.6-1.2,0.7
		h-1.2h-32.9c-0.2,0-0.4,0.1-0.6,0.1c-1,0.3-1.8,1.2-1.8,2.3c0,1.1,0.8,2,1.8,2.3c0.2,0.1,0.4,0.1,0.6,0.1h32.9h1.2
		c0.5,0.1,0.9,0.4,1.2,0.7c0.4,0.4,0.6,0.9,0.6,1.5c0,0.6-0.3,1.1-0.6,1.5c-0.4,0.5-1.1,0.9-1.8,0.9h-34.1c-1,0.3-1.8,1.2-1.8,2.3
		c0,1.3,1.1,2.4,2.4,2.4h35.3h16.1c1.3,0,2.4-1.1,2.4-2.4V74.7C211.7,73.4,210.6,72.3,209.2,72.3"/>
	<line class="st2" x1="206.3" y1="77" x2="206.3" y2="202.4"/>
	<path class="st1" d="M123.5,169.2c-3.7,0-7.1,1.4-9.7,3.6v-27.5l-2.5-42.3l-2.1,19.2l-1.6,4.1l0.2-2.8l2.3-41l-0.6-10.5l-5.3,2.1
		c0,0-1,0.6-1.1,1.6c-0.1,1-4.4,69.1-4.4,69.5v27.5c-2.6-2.3-5.9-3.6-9.7-3.6c-8,0-14.5,6.4-14.5,14.2c0,7.9,6.5,14.3,14.5,14.3
		c1,0,2-0.1,2.9-0.3c-1.4,3.5-4.9,5.9-8.9,5.9c-1.3,0-2.4,1.1-2.4,2.4c0,1.3,1.1,2.4,2.4,2.4c7.6,0,13.9-5.8,14.5-13.1
		c3.7-2.6,6.1-6.8,6.1-11.6v-38.1h5.5v38.1c0,7.9,6.5,14.3,14.5,14.3c8,0,14.5-6.4,14.5-14.3C138,175.6,131.5,169.2,123.5,169.2z
		 M89,193c-5.3,0-9.7-4.3-9.7-9.5c0-5.2,4.3-9.5,9.7-9.5c5.3,0,9.7,4.3,9.7,9.5C98.6,188.7,94.3,193,89,193z M106.2,137.8
		c-1.5,0-2.8-1.2-2.8-2.7c0-1.5,1.2-2.7,2.8-2.7c1.5,0,2.8,1.2,2.8,2.7C109,136.6,107.8,137.8,106.2,137.8z M123.5,193
		c-5.3,0-9.7-4.3-9.7-9.5c0-5.2,4.3-9.5,9.7-9.5c5.3,0,9.7,4.3,9.7,9.5C133.2,188.7,128.8,193,123.5,193z"/>
</g>
</svg>
