<?xml version="1.0" encoding="utf-8"?>
<!-- Generator: Adobe Illustrator 22.1.0, SVG Export Plug-In . SVG Version: 6.00 Build 0)  -->
<svg version="1.1" id="Layer_1" xmlns="http://www.w3.org/2000/svg" xmlns:xlink="http://www.w3.org/1999/xlink" x="0px" y="0px"
	 viewBox="0 0 279.4 274.1" style="enable-background:new 0 0 279.4 274.1;" xml:space="preserve">
<style type="text/css">
	.st0{fill:#D4E388;}
	.st1{fill:#FFFFFF;}
</style>
<g>
	<path class="st0" d="M277.9,137.1c0,74.8-61.8,135.5-138.1,135.5c-76.3,0-138.1-60.7-138.1-135.5C1.6,62.2,63.4,1.6,139.7,1.6
		C216,1.6,277.9,62.2,277.9,137.1"/>
	<path class="st1" d="M202.9,139.6c0.5-0.8,0.8-1.8,0.8-2.9l-6.3-69.9c0-2.8-2.4-5.1-5.2-5.1h-19c-2.9,0-5.2,2.3-5.2,4.9l-6.3,70.4
		c0,1,0.3,1.8,0.7,2.6c-7.5,0.1-13.6,6.1-13.6,13.4v46.6c0,7.4,6.1,13.4,13.7,13.4h40.4c7.5,0,13.7-6,13.7-13.4V153
		C216.5,145.7,210.4,139.7,202.9,139.6z M163.8,203.3c-4.6-3.2-3.7-5.9-3.7-5.9s-0.1-8.9,3.9-1.4c2.8,5.3,9.2,7.5,9.2,7.5l0.5,1.9
		C173.8,205.4,168.5,206.5,163.8,203.3z M167.8,136.8l5.5-69.8H192v0l5.5,69.7H167.8z"/>
	<path class="st1" d="M117.3,76.9c-0.5-8.8-8-15.8-17.1-15.8h-7.2c-9.1,0-16.6,7-17.1,15.8c-7.9,6.1-13.1,15.5-13.1,26.1v107.4
		c0,1.5,1.2,2.7,2.7,2.7c1.5,0,2.7-1.2,2.7-2.7V103c0-7.3,2.9-13.8,7.5-18.8v24.5c0,9.3,7.7,16.8,17.2,16.8h7.2
		c9.5,0,17.2-7.5,17.2-16.8V84.2c4.7,5,7.5,11.5,7.5,18.8v107.4c0,1.5,1.2,2.7,2.7,2.7c1.5,0,2.7-1.2,2.7-2.7V103
		C130.4,92.4,125.2,82.9,117.3,76.9z M87.7,114.7c-4.6-3.2-3.7-5.9-3.7-5.9s-1.4-7.1,2.6,0.4c2.8,5.3,10.5,5.6,10.5,5.6l5.1,2.1
		C102.2,117,92.3,117.9,87.7,114.7z"/>
</g>
</svg>
